<?xml version="1.0" encoding="UTF-8"?>
<!-- Created with Inkscape (http://www.inkscape.org/) -->
<svg width="900mm" height="250mm" version="1.1" viewBox="0 0 900 250" xmlns="http://www.w3.org/2000/svg" xmlns:cc="http://creativecommons.org/ns#" xmlns:dc="http://purl.org/dc/elements/1.1/" xmlns:rdf="http://www.w3.org/1999/02/22-rdf-syntax-ns#">
 <metadata>
  <rdf:RDF>
   <cc:Work rdf:about="">
    <dc:format>image/svg+xml</dc:format>
    <dc:type rdf:resource="http://purl.org/dc/dcmitype/StillImage"/>
    <dc:title/>
   </cc:Work>
  </rdf:RDF>
 </metadata>
 <g transform="translate(0,-47)">
  <g fill="none" stroke="#000" stroke-width="7.69">
   <path d="m90.8 67.1-68.9 136"/>
   <path d="m126 85.2-71.6 141"/>
   <path d="m66.9 53.8 84.3 42.9-57.5 113-68.6 30.6-15.7-73.5z" stroke-linejoin="round"/>
  </g>
  <path d="m25.1 240-9.2-45.8 52.2 25z"/>
  <path d="m25.1 240c12.7 19.1 33.6 27.8 56.7 24.6 24.2-3.35 39.3-46.3 68.4-51.3 29.9-5.09 92 34.2 92 34.2" fill="none" stroke="#000" stroke-width="7.06"/>
  <g transform="matrix(3.33 0 0 3.33 -891 349)" stroke-width=".265" style="font-feature-settings:normal;font-variant-caps:normal;font-variant-ligatures:normal;font-variant-numeric:normal" aria-label="YadOpt">
   <path d="m358-56q-1.98-2.06-5.41-6.65-2.41-3.22-3.4-4.27-0.992-1.07-2.73-2.46-2.31-1.79-2.85-2.55-0.521-0.769-0.521-1.61 0-0.397 0.769-1.04 0.769-0.67 1.41-0.67 1.51 0 3.99 2.28 2.48 2.28 4.49 4.81 6.13 7.76 7.59 8.68 1.46-1.61 3.08-3.3 8.19-8.48 9.97-11 1.96-2.73 3.89-2.73 0.744 0 1.17 0.719 0.422 0.695 0.422 1.41 0 0.67-1.89 2.88-1.86 2.21-9.9 10.6-3.87 4.02-4.54 5.18-0.67 1.17-1.29 6.77-0.62 5.61-0.868 8.78-0.149 1.93-0.397 2.18-0.248 0.248-1.04 0.496-0.794 0.273-1.27 0.273-1.86 0-1.86-3.13 0-1.93 0.794-6.87 0.744-4.74 0.744-6.35 0-1.41-0.372-2.41z" style="font-feature-settings:normal;font-variant-caps:normal;font-variant-ligatures:normal;font-variant-numeric:normal"/>
   <path d="m394-47.7q-3.47 4.66-6.87 6.99-3.4 2.33-6.23 2.33-1.91 0-3.3-1.61-1.39-1.61-1.39-4.14 0-6.52 5.83-14 5.83-7.54 11.6-7.54 2.08 0 3.1 2.38 0.322 0.794 1.02 0.794 1.98 0 1.98 1.54 0 0.769-0.248 2.11-1.34 7.32-1.34 10.3 0 6 2.28 7.19 1.09 0.595 1.09 1.46 0 0.769-1.07 1.54-1.07 0.794-2.06 0.794-1.91 0-3.15-2.63-1.24-2.63-1.24-7.49zm-1.51-14q-3.27 0-7.62 6.15-4.34 6.13-4.34 10.2 0 2.85 1.89 2.85 2.73 0 7.57-5.51 4.84-5.51 4.84-10.1 0-3.55-2.33-3.55z" style="font-feature-settings:normal;font-variant-caps:normal;font-variant-ligatures:normal;font-variant-numeric:normal"/>
   <path d="m425-49q-3.32 5.33-7.04 8.24-3.72 2.88-6.85 2.88-2.41 0-3.82-1.84-1.39-1.86-1.39-4.94 0-6.28 5.08-12.9 5.11-6.6 11-6.6 2.58 0 4.79 2.21l3.47-16.2q0.372-1.66 1.36-2.23 1.02-0.571 1.59-0.571 1.74 0 1.74 3.08 0 0.546-1.14 4.07-1.81 5.46-3.45 13.4-1.61 7.94-1.61 12.7 0 4.96 2.16 4.96 1.39 0 2.88-0.918 0.62-0.446 1.17-0.446 0.794 0 0.794 1.04 0 1.27-2.23 2.93-2.21 1.66-4.54 1.66-4.09 0-4.09-7.89 0-1.34 0.124-2.7zm-3.25-11.6q-4.02 0-7.96 5.46-3.94 5.43-3.94 10 0 3.1 2.06 3.1 1.93 0 4.69-2.03 2.78-2.03 5.71-6.47 2.93-4.46 2.93-6.7 0-1.09-1.02-2.23-0.992-1.17-2.46-1.17z" style="font-feature-settings:normal;font-variant-caps:normal;font-variant-ligatures:normal;font-variant-numeric:normal"/>
   <path d="m450-36.9q-3.97 0-7.07-3.94-3.08-3.94-3.08-8.19 0-5.01 3.05-11.4 3.05-6.42 7.96-10.5 4.91-4.07 10.2-4.07 4.07 0 6.77 1.02 2.7 0.992 4.86 2.88 2.16 1.89 2.88 3.87t0.719 5.56q0 3.37-2.03 7.89-2.03 4.51-6.35 8.81-4.29 4.29-8.14 6.2-3.84 1.89-9.8 1.89zm-5.61-12.4q0 3.45 2.18 5.8 2.18 2.36 5.06 2.36 7.49 0 13.8-6.9 6.28-6.9 6.28-14.6 0-2.95-1.17-4.64-1.14-1.71-3.7-2.9-2.55-1.22-5.73-1.22-5.56 0-11.1 7.54-5.56 7.54-5.56 14.6z" style="font-feature-settings:normal;font-variant-caps:normal;font-variant-ligatures:normal;font-variant-numeric:normal"/>
   <path d="m486-41.6q-1.22 4.46-2.28 12.5l-0.695 4.69q-0.174 0.992-0.918 1.96-0.744 0.992-1.36 0.992-0.769 0-1.76-0.794-0.967-0.769-0.967-1.24 0-1.36 0.62-3.77 4.54-18.3 4.54-32.2l-0.0248-2.08q-0.0496-2.68 0.943-3.89 0.992-1.22 2.28-1.22 0.595 0 1.14 0.943 0.546 0.918 0.546 2.63 0 2.41-0.496 5.83-0.645 4.32-0.67 4.96 3.7-6.45 7.84-10.1 4.14-3.62 7.69-3.62 2.51 0 4.22 1.89 1.74 1.86 1.74 4.64 0 8.09-6.2 14.7-6.2 6.6-12.1 6.6-1.46 0-2.33-0.744-0.843-0.744-1.76-2.7zm15.4-20q-3.5 0-8.66 6.55-5.16 6.55-5.16 10.2 0 0.893 1.02 1.74 1.02 0.843 2.58 0.843 3.55 0 8.16-5.23 4.61-5.26 4.61-10.3 0-1.81-0.744-2.78-0.719-0.992-1.81-0.992z" style="font-feature-settings:normal;font-variant-caps:normal;font-variant-ligatures:normal;font-variant-numeric:normal"/>
   <path d="m524-63.7q2.55-0.198 4.81-0.471 2.23-0.248 3.72-0.248 1.89 0 2.38 0.347t0.496 1.22q0 2.01-2.8 2.18-3.6 0.223-6.62 0.62t-3.27 0.67q-0.223 0.248-1.49 5.9-1.27 5.63-1.27 7.32 0 2.73 0.719 3.65 0.719 0.893 2.16 0.893 2.13 0 5.93-3.2 1.46-1.31 2.26-1.31 1.07 0 1.07 1.14 0 1.79-3.45 4.64-3.42 2.83-7.02 2.83-6 0-6-7.07 0-2.55 1.24-7.91 1.22-5.33 1.22-6.4 0-0.372-0.595-0.372l-2.58 0.223q-3.18 0-3.18-2.53 0-1.44 1.46-1.44h5.11q0.521 0 0.918-0.471 0.397-0.471 1.17-3.15 0.769-2.7 1.36-5.33 0.595-2.6 2.33-2.6 1.07 0 1.66 0.744 0.595 0.744 0.595 1.39 0 0.347-0.893 3.55z" style="font-feature-settings:normal;font-variant-caps:normal;font-variant-ligatures:normal;font-variant-numeric:normal"/>
  </g>
 </g>
</svg>
